<?xml version="1.0" encoding="iso-8859-1"?>
<!-- Generator: Adobe Illustrator 18.0.0, SVG Export Plug-In . SVG Version: 6.00 Build 0)  -->
<!DOCTYPE svg PUBLIC "-//W3C//DTD SVG 1.1//EN" "http://www.w3.org/Graphics/SVG/1.1/DTD/svg11.dtd">
<svg version="1.1" id="Capa_1" xmlns="http://www.w3.org/2000/svg" xmlns:xlink="http://www.w3.org/1999/xlink" x="0px" y="0px"
	 viewBox="0 0 58 58" style="enable-background:new 0 0 58 58;" xml:space="preserve">
<g>
	<rect x="0" y="0" style="fill:#556080;" width="58" height="58"/>
	<g>
		<rect x="5" y="5" style="fill:#556080;" width="24" height="48"/>
		<path style="fill:#26B99A;" d="M30,54H4V4h26V54z M6,52h22V6H6V52z"/>
	</g>
	<g>
		<rect x="29" y="29" style="fill:#556080;" width="24" height="12"/>
		<path style="fill:#26B99A;" d="M54,42H28V28h26V42z M30,40h22V30H30V40z"/>
	</g>
	<g>
		<rect x="29" y="17" style="fill:#556080;" width="24" height="12"/>
		<path style="fill:#26B99A;" d="M54,30H28V16h26V30z M30,28h22V18H30V28z"/>
	</g>
	<g>
		<rect x="29" y="5" style="fill:#556080;" width="24" height="12"/>
		<path style="fill:#26B99A;" d="M54,18H28V4h26V18z M30,16h22V6H30V16z"/>
	</g>
	<g>
		<rect x="29" y="41" style="fill:#556080;" width="24" height="12"/>
		<path style="fill:#26B99A;" d="M54,54H28V40h26V54z M30,52h22V42H30V52z"/>
	</g>
	<g>
		<line style="fill:#556080;" x1="29" y1="29" x2="5" y2="29"/>
		<path style="fill:#26B99A;" d="M29,30H5c-0.553,0-1-0.447-1-1s0.447-1,1-1h24c0.553,0,1,0.447,1,1S29.553,30,29,30z"/>
	</g>
</g>
<g>
</g>
<g>
</g>
<g>
</g>
<g>
</g>
<g>
</g>
<g>
</g>
<g>
</g>
<g>
</g>
<g>
</g>
<g>
</g>
<g>
</g>
<g>
</g>
<g>
</g>
<g>
</g>
<g>
</g>
</svg>
