<?xml version="1.0" encoding="iso-8859-1"?>
<!-- Generator: Adobe Illustrator 16.0.0, SVG Export Plug-In . SVG Version: 6.00 Build 0)  -->
<!DOCTYPE svg PUBLIC "-//W3C//DTD SVG 1.1//EN" "http://www.w3.org/Graphics/SVG/1.1/DTD/svg11.dtd">
<svg xmlns="http://www.w3.org/2000/svg" xmlns:xlink="http://www.w3.org/1999/xlink" version="1.1" id="Capa_1" x="0px" y="0px" width="512px" height="512px" viewBox="0 0 190.84 190.84" style="enable-background:new 0 0 190.84 190.84;" xml:space="preserve">
<g>
	<path d="M177.173,52.856c-12.102-36.945-57.11-57.154-95.909-52.085c-0.576-0.433-1.347-0.636-2.274-0.401   c-2.124,0.54-4.154,1.183-6.116,1.931C62.502,4.728,52.807,9.085,44.628,15.62C23.647,32.384,11.667,62.39,13.766,88.848   c2.042,25.74,20.851,49.723,46.49,55.07c0.096,0.25,0.189,0.501,0.285,0.751c0.11,0.285,0.258,0.522,0.42,0.737   c0.391,9.401,1.502,18.743,1.297,28.184c-0.068,3.129-4.771,15.309,0.684,15.611c0.265,0.016,0.552-0.042,0.838-0.132   c2.933,1.938,6.19,1.211,9.74,1.236c5.436,0.037,10.872,0.129,16.307,0.256c12.044,0.283,24.122,0.536,36.152-0.231   c1.617-0.103,3.019-1.286,3-3c-0.107-9.578,0.266-19.757-0.495-29.427c8.457,0.856,17.019,3.013,25.188,0.279   c12.651-4.233,11.471-19.905,10.314-30.296c-1.074-9.655,4.292-10.277,8.509-17.016c1.766-2.819,2.849-6.857,0.056-9.54   c-2.308-2.215-4.781-2.591-5.14-5.992c-0.378-3.589-1.025-7.156-1.637-10.71c-1.573-9.144-3.951-18.774-2.732-28.106   c3.795,0.156,7.554,0.345,11.362-0.034C176.161,56.315,177.803,54.775,177.173,52.856z M75.482,44.869   c6.322-11.612,18.962-22.287,32.391-15.029c10.489,5.669,17.397,18.826,15.443,30.524c-1.679,10.05-9.103,19.02-13.661,27.908   c-4.146,8.084-6.38,17.799-6.795,27.526c-4.654,0.071-9.3,0.338-13.95,0.519c-1.176-0.028-2.348-0.052-3.515-0.069   c-0.168-8.05,0.417-15.311,4.876-23.301c6.613-11.845,17.93-22.096,19.722-36.246c1.31-10.331-10.325-19.83-19.706-12.276   c-7.427,5.98-6.746,18.671-1.935,26.674c-3.181,0.041-6.367,0.199-9.538,0.335c-2.022,0.086-4.032,0.244-6.041,0.496   c-0.063,0.008-0.128,0.027-0.192,0.041C66.871,64.06,71.201,52.733,75.482,44.869z M98.062,135.092   c-1.967,0.237-3.927,0.321-5.906,0.348c-5.97,0.079-6.288-6.134-6.448-10.554c-0.031-0.864-0.066-1.711-0.1-2.552   c5.745-0.103,11.484-0.475,17.225-0.668c0.143,4.306,0.634,8.55,1.49,12.587C102.23,134.503,100.144,134.841,98.062,135.092z" fill="#230436"/>
</g>
<g>
</g>
<g>
</g>
<g>
</g>
<g>
</g>
<g>
</g>
<g>
</g>
<g>
</g>
<g>
</g>
<g>
</g>
<g>
</g>
<g>
</g>
<g>
</g>
<g>
</g>
<g>
</g>
<g>
</g>
</svg>
