<?xml version="1.0" encoding="iso-8859-1"?>
<!-- Generator: Adobe Illustrator 19.0.0, SVG Export Plug-In . SVG Version: 6.00 Build 0)  -->
<svg version="1.1" id="Layer_1" xmlns="http://www.w3.org/2000/svg" xmlns:xlink="http://www.w3.org/1999/xlink" x="0px" y="0px"
	 viewBox="0 0 382.537 382.537" style="enable-background:new 0 0 382.537 382.537;" xml:space="preserve">
<g>
	<rect x="85.98" y="198.742" style="fill:#F9A18A;" width="210.58" height="57.74"/>
	<rect x="85.98" y="109.722" style="fill:#F9A18A;" width="210.58" height="57.74"/>
	<rect x="23.81" y="6.061" style="fill:#F7E88B;" width="334.91" height="72.39"/>
	<rect y="318.441" style="fill:#88C5FC;" width="101.05" height="57.74"/>
	<rect x="140.743" y="318.438" style="fill:#88C5FC;" width="101.048" height="57.742"/>
	<rect x="281.488" y="318.438" style="fill:#88C5FC;" width="101.048" height="57.742"/>
	<g>
		<rect x="183.767" y="167.469" style="fill:#B3B3B3;" width="15" height="31.271"/>
		<rect x="183.767" y="256.482" style="fill:#B3B3B3;" width="15" height="61.956"/>
		<rect x="183.767" y="78.448" style="fill:#B3B3B3;" width="15" height="31.28"/>
		<polygon style="fill:#B3B3B3;" points="58.021,318.438 43.021,318.438 43.021,221.889 85.975,221.889 85.975,236.889 
			58.021,236.889 		"/>
		<polygon style="fill:#B3B3B3;" points="339.513,318.438 324.513,318.438 324.513,236.889 296.559,236.889 296.559,221.889 
			339.513,221.889 		"/>
	</g>
	<polygon style="opacity:0.23;fill:#F2F2F2;enable-background:new    ;" points="296.56,109.722 296.56,167.461 238.05,167.461 
		268.09,109.722 	"/>
	<polygon style="opacity:0.23;fill:#F2F2F2;enable-background:new    ;" points="296.56,198.742 296.56,256.481 240.38,256.481 
		270.42,198.742 	"/>
	<polygon style="opacity:0.23;fill:#F2F2F2;enable-background:new    ;" points="101.045,318.736 101.045,376.475 44.865,376.475 
		74.905,318.736 	"/>
	<polygon style="opacity:0.23;fill:#F2F2F2;enable-background:new    ;" points="241.791,318.736 241.791,376.475 185.611,376.475 
		215.651,318.736 	"/>
	<polygon style="opacity:0.23;fill:#F2F2F2;enable-background:new    ;" points="382.537,318.736 382.537,376.475 326.357,376.475 
		356.397,318.736 	"/>
	<polygon style="opacity:0.23;fill:#F2F2F2;enable-background:new    ;" points="91.29,6.061 89.57,9.361 63.61,59.242 
		53.62,78.452 23.81,78.452 23.81,6.061 	"/>
	<polygon style="opacity:0.23;fill:#F2F2F2;enable-background:new    ;" points="145.83,109.722 125.78,148.251 115.79,167.461 
		85.98,167.461 85.98,109.722 	"/>
	<polygon style="opacity:0.23;fill:#F2F2F2;enable-background:new    ;" points="145.83,198.742 125.78,237.271 115.79,256.481 
		85.98,256.481 85.98,198.742 	"/>
	<polygon style="opacity:0.23;fill:#F2F2F2;enable-background:new    ;" points="18.97,318.441 0,354.892 0,318.441 	"/>
	<polygon style="opacity:0.23;fill:#F2F2F2;enable-background:new    ;" points="300.459,318.441 281.489,354.892 281.489,318.441 	
		"/>
	<polygon style="opacity:0.23;fill:#F2F2F2;enable-background:new    ;" points="159.713,318.441 140.743,354.892 140.743,318.441 	
		"/>
	<polygon style="opacity:0.23;fill:#F2F2F2;enable-background:new    ;" points="358.72,6.061 358.72,78.452 257.37,78.452 
		295.04,6.061 	"/>
</g>
<g>
</g>
<g>
</g>
<g>
</g>
<g>
</g>
<g>
</g>
<g>
</g>
<g>
</g>
<g>
</g>
<g>
</g>
<g>
</g>
<g>
</g>
<g>
</g>
<g>
</g>
<g>
</g>
<g>
</g>
</svg>
